<?xml version="1.0" standalone="no"?>
<!DOCTYPE svg PUBLIC "-//W3C//DTD SVG 20010904//EN"
 "http://www.w3.org/TR/2001/REC-SVG-20010904/DTD/svg10.dtd">
<svg version="1.0" xmlns="http://www.w3.org/2000/svg"
 width="1024.000000pt" height="1024.000000pt" viewBox="0 0 1024.000000 1024.000000"
 preserveAspectRatio="xMidYMid meet">

<g transform="translate(0.000000,1024.000000) scale(0.100000,-0.100000)"
fill="#000000" stroke="none">
<path d="M895 8358 c-3 -7 -4 -1478 -3 -3268 l3 -3255 4225 0 4225 0 0 3265 0
3265 -4223 3 c-3373 2 -4224 0 -4227 -10z m8265 -3258 l0 -3080 -4040 0 -4040
0 0 3075 0 3075 4038 3 c2220 1 4038 3 4040 5 1 1 2 -1384 2 -3078z"/>
<path d="M2602 7174 c-27 -19 -27 -28 -2 -112 10 -37 105 -389 210 -782 105
-393 281 -1048 390 -1455 109 -407 249 -926 309 -1153 61 -227 115 -422 121
-432 6 -11 19 -24 30 -30 11 -6 141 -10 343 -10 297 0 327 2 347 18 24 19 108
307 465 1587 301 1081 298 1071 307 1049 4 -10 91 -314 192 -674 531 -1889
549 -1950 572 -1967 22 -16 664 -19 694 -3 24 13 30 34 145 465 53 198 166
619 251 935 178 658 335 1245 431 1600 36 135 105 391 155 570 111 405 105
374 77 394 -21 14 -68 16 -391 16 -445 0 -403 16 -443 -170 -15 -69 -132 -582
-260 -1140 -128 -558 -255 -1111 -281 -1227 -27 -117 -51 -213 -54 -213 -3 0
-11 24 -18 53 -7 28 -46 176 -86 327 -149 548 -286 1061 -361 1345 -92 349
-231 870 -251 942 -24 86 -12 83 -385 83 -296 0 -329 -2 -348 -17 -17 -14 -38
-83 -100 -328 -83 -324 -139 -537 -395 -1510 -186 -706 -234 -887 -240 -892
-2 -3 -7 4 -10 14 -13 43 -382 1656 -552 2408 -24 110 -49 221 -55 248 -18 80
-5 77 -419 77 -315 0 -369 -2 -388 -16z"/>
</g>
</svg>
